<svg id="レイヤー_1" data-name="レイヤー 1" xmlns="http://www.w3.org/2000/svg" viewBox="0 0 1004.922 125.615"><defs><style>.cls-1{fill:none;}.cls-2{fill:#fff;}</style></defs><title>ロゴアニメai</title><rect class="cls-1" x="502.461" width="125.615" height="125.615"/><rect class="cls-1" width="125.615" height="125.615"/><rect class="cls-1" x="628.076" width="125.615" height="125.615"/><rect class="cls-1" x="879.307" width="125.615" height="125.615"/><rect class="cls-1" x="753.692" width="125.615" height="125.615"/><rect class="cls-1" x="376.846" width="125.615" height="125.615"/><rect class="cls-1" x="125.615" width="125.615" height="125.615"/><rect class="cls-1" x="251.231" width="125.615" height="125.615"/><path class="cls-2" d="M438.482,95.242c-28.966,0-52.532-25.154-52.532-56.072,0-1.861.086-3.738.257-5.579a3.542,3.542,0,0,1,4.195-3.153,249.78,249.78,0,0,0,48.081,4.2,249.776,249.776,0,0,0,48.08-4.2,3.542,3.542,0,0,1,4.195,3.153c.171,1.841.257,3.718.257,5.579C491.014,70.088,467.448,95.242,438.482,95.242ZM412.136,79.065a42.719,42.719,0,0,0,52.693,0,30.406,30.406,0,0,0-52.693,0Zm26.346-22.312a37.527,37.527,0,0,1,31.7,17.49A50.762,50.762,0,0,0,483.93,39.169q0-.523-.01-1.047a261.361,261.361,0,0,1-45.437,3.6,261.366,261.366,0,0,1-45.438-3.6q-.01.524-.01,1.047a50.771,50.771,0,0,0,13.749,35.073A37.527,37.527,0,0,1,438.482,56.753Z"/><path class="cls-2" d="M187.251,95.242c-28.966,0-52.532-25.154-52.532-56.072,0-1.86.087-3.737.257-5.579a3.542,3.542,0,0,1,4.195-3.153,249.776,249.776,0,0,0,48.08,4.2,249.772,249.772,0,0,0,48.08-4.2,3.542,3.542,0,0,1,4.195,3.153c.171,1.841.257,3.718.257,5.579C239.784,70.088,216.218,95.242,187.251,95.242ZM160.9,79.065a42.719,42.719,0,0,0,52.693,0,30.406,30.406,0,0,0-52.693,0Zm26.346-22.312a37.527,37.527,0,0,1,31.7,17.49A50.762,50.762,0,0,0,232.7,39.169q0-.523-.01-1.047a261.358,261.358,0,0,1-45.437,3.6,261.363,261.363,0,0,1-45.438-3.6q-.01.525-.01,1.047a50.762,50.762,0,0,0,13.749,35.074A37.527,37.527,0,0,1,187.251,56.753Z"/><path class="cls-2" d="M312.867,96.5c-28.274,0-51.276-26.179-51.276-58.356,0-1.93.084-3.877.249-5.787a3.542,3.542,0,0,1,4.242-3.164,227.41,227.41,0,0,0,46.785,4.373,227.408,227.408,0,0,0,46.785-4.373,3.542,3.542,0,0,1,4.242,3.165c.165,1.91.249,3.857.249,5.786C364.143,70.319,341.14,96.5,312.867,96.5ZM286.928,79.629a39.276,39.276,0,0,0,51.877,0,29.2,29.2,0,0,0-51.877,0Zm25.939-22.876a36.514,36.514,0,0,1,31.142,17.732,55.48,55.48,0,0,0,13.05-36.344q0-.611-.012-1.224a238.607,238.607,0,0,1-44.179,3.73,238.61,238.61,0,0,1-44.179-3.73q-.012.613-.012,1.224a55.479,55.479,0,0,0,13.05,36.344A36.515,36.515,0,0,1,312.867,56.753Z"/><path class="cls-2" d="M689.713,92.729c-30.352,0-55.045-23.105-55.045-51.5a49.017,49.017,0,0,1,.274-5.172,3.543,3.543,0,0,1,4.1-3.119,302.013,302.013,0,0,0,50.666,3.841,302.009,302.009,0,0,0,50.665-3.841,3.543,3.543,0,0,1,4.1,3.119,48.933,48.933,0,0,1,.274,5.172C744.757,69.624,720.064,92.729,689.713,92.729ZM662.684,77.9a51.046,51.046,0,0,0,54.058,0,33.005,33.005,0,0,0-54.058,0ZM641.753,41.225a42.871,42.871,0,0,0,15.241,32.449,40.094,40.094,0,0,1,65.439,0,42.87,42.87,0,0,0,15.24-32.449q0-.342-.006-.685a314.271,314.271,0,0,1-47.954,3.32,314.275,314.275,0,0,1-47.954-3.32Q641.753,40.883,641.753,41.225Z"/><path class="cls-2" d="M940.943,92.729c-30.352,0-55.045-23.105-55.045-51.5a48.933,48.933,0,0,1,.274-5.172,3.543,3.543,0,0,1,4.1-3.119,302.013,302.013,0,0,0,50.666,3.841,302.009,302.009,0,0,0,50.665-3.841,3.543,3.543,0,0,1,4.1,3.119,49.017,49.017,0,0,1,.274,5.172C995.988,69.624,971.295,92.729,940.943,92.729ZM913.914,77.9a51.046,51.046,0,0,0,54.058,0,33.005,33.005,0,0,0-54.058,0ZM892.983,41.225a42.871,42.871,0,0,0,15.241,32.449,40.095,40.095,0,0,1,65.439,0A42.871,42.871,0,0,0,988.9,41.225q0-.342-.006-.685a314.271,314.271,0,0,1-47.954,3.32,314.275,314.275,0,0,1-47.954-3.32Q892.983,40.883,892.983,41.225Z"/><path class="cls-2" d="M815.328,91.473c-31.044,0-56.3-22.08-56.3-49.221a43.743,43.743,0,0,1,.284-4.972,3.542,3.542,0,0,1,4.062-3.1,332.65,332.65,0,0,0,51.956,3.662,332.642,332.642,0,0,0,51.955-3.662,3.542,3.542,0,0,1,4.062,3.1,43.818,43.818,0,0,1,.284,4.972C871.629,69.393,846.372,91.473,815.328,91.473ZM788.031,77.3a56.092,56.092,0,0,0,54.593,0,34.407,34.407,0,0,0-54.593,0Zm27.3-20.545A40.835,40.835,0,0,1,848.51,73.345c9.847-7.71,16.034-18.8,16.034-31.093q0-.25,0-.5a345.33,345.33,0,0,1-49.212,3.178,345.337,345.337,0,0,1-49.213-3.178q0,.25,0,.5c0,12.3,6.186,23.382,16.033,31.092A40.721,40.721,0,0,1,815.328,56.753Z"/><path class="cls-2" d="M617.729,35.859a3.939,3.939,0,0,0-4.577-3.594A303.242,303.242,0,0,1,564.1,36.241a303.232,303.232,0,0,1-49.054-3.977,3.939,3.939,0,0,0-4.577,3.594q-.131,1.874-.132,3.782a53.763,53.763,0,1,0,107.526,0Q617.86,37.734,617.729,35.859Zm-79.892,42.33a31.173,31.173,0,0,1,52.524,0,45.77,45.77,0,0,1-52.524,0Zm58.418-4.91a39.766,39.766,0,0,0-64.316,0A45.731,45.731,0,0,1,518.226,40.6q0-.439.009-.88a281.12,281.12,0,0,0,45.863,3.4,281.12,281.12,0,0,0,45.863-3.4q.008.44.008.88A45.731,45.731,0,0,1,596.254,73.279Z"/><path class="cls-2" d="M115.267,35.859a3.939,3.939,0,0,0-4.577-3.594,303.242,303.242,0,0,1-49.054,3.976,303.232,303.232,0,0,1-49.054-3.977A3.939,3.939,0,0,0,8,35.859q-.131,1.874-.132,3.782a53.763,53.763,0,1,0,107.526,0Q115.4,37.734,115.267,35.859ZM35.375,78.189a31.173,31.173,0,0,1,52.524,0,45.77,45.77,0,0,1-52.524,0Zm58.418-4.91a39.766,39.766,0,0,0-64.316,0A45.731,45.731,0,0,1,15.765,40.6q0-.439.009-.88a281.12,281.12,0,0,0,45.863,3.4,281.12,281.12,0,0,0,45.863-3.4q.008.44.008.88A45.731,45.731,0,0,1,93.793,73.279Z"/></svg>