<svg xmlns="http://www.w3.org/2000/svg" viewBox="0 0 219.53 114.07"><defs><style>.cls-1{fill:#fff;}</style></defs><title>アセット 1</title><g id="レイヤー_2" data-name="レイヤー 2"><g id="清刷"><path class="cls-1" d="M164.54,4.22a4.56,4.56,0,0,0-5.3-4.16,351.18,351.18,0,0,1-56.81,4.61A351.18,351.18,0,0,1,45.62.06a4.56,4.56,0,0,0-5.3,4.16q-.15,2.17-.15,4.38a62.26,62.26,0,1,0,124.53,0Q164.69,6.39,164.54,4.22ZM72,53.25a36.1,36.1,0,0,1,60.83,0,53,53,0,0,1-60.83,0Zm67.65-5.69a46.05,46.05,0,0,0-74.48,0A53,53,0,0,1,49.31,9.72q0-.51,0-1a325.56,325.56,0,0,0,53.11,3.94A325.56,325.56,0,0,0,155.54,8.7q0,.51,0,1A53,53,0,0,1,139.67,47.56Z"/><circle class="cls-1" cx="150.43" cy="87.51" r="1.93"/><path class="cls-1" d="M207.39,93.28h-2.25V92.13h5.75v1.15h-2.25v5.93h-1.26Z"/><path class="cls-1" d="M212.57,92.13h1.33L216,95.48l2.16-3.35h1.33v7.09h-1.25V94.13L216,97.47h0l-2.22-3.32v5.06h-1.22Z"/><path class="cls-1" d="M33.45,91.49a11.24,11.24,0,1,0,11.24,11.24A11.25,11.25,0,0,0,33.45,91.49Zm8.06,11.24a8.06,8.06,0,1,1-8.06-8.19A8.14,8.14,0,0,1,41.51,102.73Z"/><path class="cls-1" d="M167.66,91.49a11.24,11.24,0,1,0,11.24,11.24A11.25,11.25,0,0,0,167.66,91.49Zm8.06,11.24a8.06,8.06,0,1,1-8.06-8.19A8.14,8.14,0,0,1,175.72,102.73Z"/><path class="cls-1" d="M11.17,94.67a7.86,7.86,0,0,1,6.06,2.86l0,0,2.52-2,0,0a11.24,11.24,0,1,0,0,14.41l0,0-2.52-2,0,0a7.87,7.87,0,0,1-6.06,2.86,8.06,8.06,0,0,1,0-16.11Z"/><path class="cls-1" d="M99.41,87.48h-3v4.65H94v2.75h2.42v12.84A6.2,6.2,0,0,0,98.9,113a5.9,5.9,0,0,0,3.43,1,9.77,9.77,0,0,0,3.09-.57h0v-3h0c-1.94.69-3.87.72-4.8.09a3.33,3.33,0,0,1-1.19-2.87V94.87h6V92.13h-6Z"/><path class="cls-1" d="M137.56,87.48h-3v4.65h-2.42v2.75h2.42v12.84a6.2,6.2,0,0,0,2.48,5.32,5.9,5.9,0,0,0,3.43,1,9.77,9.77,0,0,0,3.09-.57h0v-3h0c-1.94.69-3.87.72-4.8.09a3.33,3.33,0,0,1-1.19-2.87V94.87h6V92.13h-6Z"/><rect class="cls-1" x="148.91" y="92.13" width="2.98" height="21.26"/><path class="cls-1" d="M118.8,91.7a15.94,15.94,0,0,0-7.31,1.83l-.67.33,1.08,2.56v0l.8-.41a12.77,12.77,0,0,1,6-1.58c4.07,0,6.41,2,6.41,5.57v.48a21.12,21.12,0,0,0-6.41-1,10.72,10.72,0,0,0-6.92,2.17,7,7,0,0,0-2.59,5.52,6.23,6.23,0,0,0,2.63,5.2,9.54,9.54,0,0,0,5.64,1.7,10,10,0,0,0,7.65-3.57v2.86H128v-13a8.68,8.68,0,0,0-2.17-6.22C124.29,92.56,121.8,91.7,118.8,91.7Zm6.37,11.21v2.42c0,3.46-3.39,6.27-7.55,6.27-2.66,0-5.34-1.39-5.34-4.5V107A4.58,4.58,0,0,1,114,103.4a7.4,7.4,0,0,1,4.73-1.45A20.73,20.73,0,0,1,125.17,102.9Z"/><path class="cls-1" d="M82.51,101.2h0c-5.45-1.66-5.35-2.9-5.25-4a2.36,2.36,0,0,1,.94-1.66,6.27,6.27,0,0,1,4.52-1,9.62,9.62,0,0,1,4.84,2l0,0,1.94-2.21,0,0,0,0A12.71,12.71,0,0,0,83,91.6a9.26,9.26,0,0,0-6.74,1.67,5.26,5.26,0,0,0-2,3.69c-.32,3.76,2.44,5.36,7.33,6.84l0,0c5.17,1.6,5.49,2.81,5.37,4.22a2.57,2.57,0,0,1-1,1.81A6.1,6.1,0,0,1,82.14,111a9.83,9.83,0,0,1-1-.05,10,10,0,0,1-5.41-2.35l0,0-2.08,2.08,0,0,0,0a13.06,13.06,0,0,0,7.19,3.17,12.47,12.47,0,0,0,1.28.07,9.15,9.15,0,0,0,5.77-1.81A5.46,5.46,0,0,0,90,108.28C90.32,104.39,87.49,102.74,82.51,101.2Z"/><path class="cls-1" d="M200.44,94.54a8.41,8.41,0,0,0-6.57-2.79c-3.08,0-6,1.37-7.43,3.43v-3h-3v21.26h3v-12a6.65,6.65,0,1,1,13.29,0v12h3v-12A10.37,10.37,0,0,0,200.44,94.54Z"/><path class="cls-1" d="M59.19,91.54a10.9,10.9,0,0,0-7.84,3.25,11.3,11.3,0,0,0-3.2,8,11.14,11.14,0,0,0,11.37,11.14,11.52,11.52,0,0,0,8.33-3.53l0,0-2.21-2,0,0,0,0a8.64,8.64,0,0,1-11.48.75,7.93,7.93,0,0,1-2.81-4.72v0H68.72a1.49,1.49,0,0,0,1.51-1.47v-.71A10.93,10.93,0,0,0,59.19,91.54Zm7.94,10.08H51.26v0a7.85,7.85,0,0,1,7.93-7.12,8,8,0,0,1,5.35,2,7.91,7.91,0,0,1,2.59,5.09Z"/></g></g></svg>