<svg xmlns="http://www.w3.org/2000/svg" xmlns:xlink="http://www.w3.org/1999/xlink" viewBox="0 0 383.05 42.33"><defs><style>.cls-1{fill:url(#名称未設定グラデーション_23);}.cls-2{fill:#333;}</style><linearGradient id="名称未設定グラデーション_23" y1="21.16" x2="74.38" y2="21.16" gradientUnits="userSpaceOnUse"><stop offset="0" stop-color="#12b8d7"/><stop offset="1" stop-color="#005ead"/></linearGradient></defs><title>アセット 1</title><g id="レイヤー_2" data-name="レイヤー 2"><g id="レイヤー_1-2" data-name="レイヤー 1"><path class="cls-1" d="M74.29,2.52A2.72,2.72,0,0,0,71.12,0,209.76,209.76,0,0,1,37.19,2.79,209.76,209.76,0,0,1,3.26,0,2.72,2.72,0,0,0,.09,2.52Q0,3.82,0,5.14a37.19,37.19,0,1,0,74.38,0Q74.38,3.82,74.29,2.52ZM19,31.8a21.56,21.56,0,0,1,36.33,0A31.66,31.66,0,0,1,19,31.8Zm40.41-3.4a27.51,27.51,0,0,0-44.49,0A31.63,31.63,0,0,1,5.46,5.8q0-.3,0-.61A194.46,194.46,0,0,0,37.19,7.55,194.46,194.46,0,0,0,68.91,5.19q0,.3,0,.61A31.63,31.63,0,0,1,59.43,28.41Z"/><path class="cls-2" d="M366.86,10.56h-3V9h7.67v1.54h-3v7.91h-1.67Z"/><path class="cls-2" d="M373.76,9h1.77l2.88,4.47L381.28,9H383v9.45h-1.66V11.69l-3,4.45h-.05l-3-4.43v6.75h-1.63Z"/><path class="cls-2" d="M134.94,8.18a15,15,0,1,0,15,15A15,15,0,0,0,134.94,8.18Zm10.75,15a10.75,10.75,0,1,1-10.75-10.92A10.85,10.85,0,0,1,145.68,23.16Z"/><path class="cls-2" d="M313.89,8.18a15,15,0,1,0,15,15A15,15,0,0,0,313.89,8.18Zm10.75,15a10.75,10.75,0,1,1-10.75-10.92A10.85,10.85,0,0,1,324.63,23.16Z"/><path class="cls-2" d="M105.23,12.42a10.49,10.49,0,0,1,8.08,3.81l0,.06,3.35-2.68-.05-.06a14.93,14.93,0,1,0-11.43,24.59,14.83,14.83,0,0,0,11.43-5.38l.05-.06L113.36,30l0,.06a10.49,10.49,0,0,1-8.08,3.81,10.74,10.74,0,0,1,0-21.48Z"/><path class="cls-2" d="M222.88,2.83h-4V9h-3.23v3.66h3.23V29.8a8.27,8.27,0,0,0,3.3,7.1,7.87,7.87,0,0,0,4.57,1.34,13,13,0,0,0,4.12-.75h0v-4l-.05,0c-2.59.92-5.16,1-6.4.12a4.43,4.43,0,0,1-1.59-3.83V12.68h8V9h-8Z"/><path class="cls-2" d="M273.75,2.83h-4V9h-3.23v3.66h3.23V29.8a8.27,8.27,0,0,0,3.3,7.1,7.87,7.87,0,0,0,4.57,1.34,13,13,0,0,0,4.12-.75h0v-4l-.05,0c-2.59.92-5.16,1-6.4.12a4.43,4.43,0,0,1-1.59-3.83V12.68h8V9h-8Z"/><rect class="cls-2" x="288.88" y="9.02" width="3.97" height="28.35"/><path class="cls-2" d="M248.74,8.45A21.26,21.26,0,0,0,239,10.89l-.89.44,1.43,3.41,0,0,1.06-.54a17,17,0,0,1,8-2.1c5.43,0,8.54,2.7,8.54,7.42v.63a28.16,28.16,0,0,0-8.54-1.36,14.29,14.29,0,0,0-9.23,2.9A9.38,9.38,0,0,0,236,29.08a8.31,8.31,0,0,0,3.5,6.93A12.72,12.72,0,0,0,247,38.28a13.39,13.39,0,0,0,10.21-4.75v3.81H261V20a11.58,11.58,0,0,0-2.9-8.29C256.06,9.6,252.73,8.45,248.74,8.45Zm8.49,14.94v3.22c0,4.61-4.52,8.36-10.07,8.36-3.54,0-7.12-1.85-7.12-6v-.11a6.1,6.1,0,0,1,2.31-4.81,9.87,9.87,0,0,1,6.3-1.94A27.65,27.65,0,0,1,257.23,23.39Z"/><path class="cls-2" d="M200.35,21.12h0c-7.27-2.21-7.13-3.87-7-5.32a3.15,3.15,0,0,1,1.25-2.22,8.36,8.36,0,0,1,6-1.35,12.83,12.83,0,0,1,6.45,2.65l0,0L209.67,12l0,0,0,0A16.94,16.94,0,0,0,201,8.32a12.35,12.35,0,0,0-9,2.23,7,7,0,0,0-2.68,4.91c-.43,5,3.26,7.14,9.77,9.13l.06,0c6.89,2.13,7.32,3.74,7.16,5.63A3.43,3.43,0,0,1,205,32.64a8.13,8.13,0,0,1-5.11,1.51,13.07,13.07,0,0,1-1.32-.07A13.3,13.3,0,0,1,191.33,31l0,0-2.77,2.78,0,0,0,0A17.42,17.42,0,0,0,198.13,38a16.57,16.57,0,0,0,1.7.09,12.19,12.19,0,0,0,7.7-2.41,7.28,7.28,0,0,0,2.79-5.11C210.76,25.38,207,23.17,200.35,21.12Z"/><circle class="cls-2" cx="290.91" cy="2.87" r="2.57"/><path class="cls-2" d="M357.6,12.23a11.21,11.21,0,0,0-8.76-3.73c-4.11,0-8.07,1.83-9.9,4.57V9h-4V37.37h4V21.31a8.86,8.86,0,1,1,17.72,0V37.37h4v-16A13.82,13.82,0,0,0,357.6,12.23Z"/><path class="cls-2" d="M169.27,8.24a14.53,14.53,0,0,0-10.46,4.33,15.07,15.07,0,0,0-4.27,10.66,14.85,14.85,0,0,0,15.16,14.85,15.37,15.37,0,0,0,11.11-4.7l0,0-2.94-2.62,0,0,0,0a11.52,11.52,0,0,1-15.3,1,10.57,10.57,0,0,1-3.75-6.29v0H182a2,2,0,0,0,2-2V22.5A14.57,14.57,0,0,0,169.27,8.24Zm10.59,13.43H158.68v0a10.47,10.47,0,0,1,10.58-9.49,10.66,10.66,0,0,1,7.13,2.7,10.55,10.55,0,0,1,3.45,6.79Z"/></g></g></svg>