<?xml version="1.0" encoding="utf-8"?>
<!-- Generator: Adobe Illustrator 21.0.2, SVG Export Plug-In . SVG Version: 6.00 Build 0)  -->
<!DOCTYPE svg PUBLIC "-//W3C//DTD SVG 1.1//EN" "http://www.w3.org/Graphics/SVG/1.1/DTD/svg11.dtd">
<svg version="1.1" id="レイヤー_1" xmlns="http://www.w3.org/2000/svg" xmlns:xlink="http://www.w3.org/1999/xlink" x="0px"
	 y="0px" viewBox="0 0 383 42.3" style="enable-background:new 0 0 383 42.3;" xml:space="preserve">
<style type="text/css">
	.st0{fill:#FFFFFF;}
</style>
<title>アセット 1</title>
<g id="レイヤー_2">
	<g id="レイヤー_1-2">
		<path class="st0" d="M74.3,2.5C74.2,1,72.9-0.1,71.4,0c-0.1,0-0.2,0-0.3,0C59.9,1.8,48.6,2.8,37.2,2.8C25.8,2.8,14.5,1.8,3.3,0
			C1.8-0.3,0.4,0.7,0.1,2.2c0,0.1,0,0.2,0,0.3C0,3.4,0,4.3,0,5.1c0,20.5,16.7,37.2,37.2,37.2S74.4,25.7,74.4,5.1
			C74.4,4.3,74.3,3.4,74.3,2.5z M19,31.8c6.4-10,19.7-13,29.8-6.6c2.6,1.7,4.9,3.9,6.6,6.6C44.4,39.4,29.9,39.4,19,31.8z M59.4,28.4
			c-8.9-12.3-26.1-15-38.4-6.1c-2.3,1.7-4.4,3.7-6.1,6.1c-6.1-6-9.5-14.1-9.5-22.6c0-0.2,0-0.4,0-0.6C16,6.8,26.6,7.6,37.2,7.5
			c10.6,0.1,21.2-0.7,31.7-2.4c0,0.2,0,0.4,0,0.6C68.9,14.3,65.5,22.5,59.4,28.4L59.4,28.4z"/>
		<path class="st0" d="M366.9,10.6h-3V9h7.7v1.5h-3v7.9h-1.7V10.6z"/>
		<path class="st0" d="M373.8,9h1.8l2.9,4.5l2.9-4.5h1.7v9.4h-1.7v-6.8l-3,4.4h0l-3-4.4v6.7h-1.6L373.8,9z"/>
		<path class="st0" d="M134.9,8.2c-8.3,0-15,6.7-15,15s6.7,15,15,15s15-6.7,15-15S143.2,8.2,134.9,8.2z M145.7,23.2
			c-0.1,5.9-5,10.7-10.9,10.6s-10.7-5-10.6-10.9c0.1-5.9,4.9-10.6,10.7-10.6C140.9,12.3,145.7,17.2,145.7,23.2L145.7,23.2z"/>
		<path class="st0" d="M313.9,8.2c-8.3,0-15,6.7-15,15s6.7,15,15,15s15-6.7,15-15S322.2,8.2,313.9,8.2z M324.6,23.2
			c-0.1,5.9-5,10.7-10.9,10.6c-5.9-0.1-10.7-5-10.6-10.9c0.1-5.9,4.9-10.6,10.7-10.6C319.9,12.3,324.7,17.2,324.6,23.2L324.6,23.2z"
			/>
		<path class="st0" d="M105.2,12.4c3.1,0,6.1,1.4,8.1,3.8v0.1l3.3-2.7l-0.1-0.1c-5.3-6.3-14.8-7.1-21-1.7s-7.1,14.8-1.7,21
			c2.8,3.3,7,5.3,11.3,5.3c4.4,0,8.6-2,11.4-5.4l0.1-0.1l-3.3-2.7v0.1c-2,2.4-5,3.8-8.1,3.8c-5.9,0-10.7-4.8-10.7-10.7
			C94.5,17.2,99.3,12.4,105.2,12.4L105.2,12.4z"/>
		<path class="st0" d="M222.9,2.8h-4V9h-3.2v3.7h3.2v17.1c-0.2,2.8,1.1,5.4,3.3,7.1c1.3,0.9,2.9,1.4,4.6,1.3c1.4,0,2.8-0.3,4.1-0.8
			l0,0v-4h-0.1c-2.6,0.9-5.2,1-6.4,0.1c-1.1-0.9-1.7-2.4-1.6-3.8V12.7h8V9h-8L222.9,2.8z"/>
		<path class="st0" d="M273.8,2.8h-4V9h-3.2v3.7h3.2v17.1c-0.2,2.8,1.1,5.4,3.3,7.1c1.3,0.9,2.9,1.4,4.6,1.3c1.4,0,2.8-0.3,4.1-0.8
			l0,0v-4h0c-2.6,0.9-5.2,1-6.4,0.1c-1.1-0.9-1.7-2.4-1.6-3.8V12.7h8V9h-8L273.8,2.8z"/>
		<rect x="288.9" y="9" class="st0" width="4" height="28.4"/>
		<path class="st0" d="M248.7,8.4c-3.4,0-6.7,0.9-9.7,2.4l-0.9,0.4l1.4,3.4l0,0l1.1-0.5c2.5-1.3,5.2-2.1,8-2.1
			c5.4,0,8.5,2.7,8.5,7.4v0.6c-2.8-0.9-5.6-1.3-8.5-1.4c-3.3-0.1-6.6,0.9-9.2,2.9c-2.2,1.8-3.4,4.5-3.4,7.4
			c-0.1,2.7,1.3,5.3,3.5,6.9c2.2,1.5,4.8,2.3,7.5,2.3c3.9,0,7.7-1.7,10.2-4.8v3.8h3.8V20c0.2-3-0.9-6-2.9-8.3
			C256.1,9.6,252.7,8.4,248.7,8.4z M257.2,23.4v3.2c0,4.6-4.5,8.4-10.1,8.4c-3.5,0-7.1-1.8-7.1-6v-0.1c0-1.9,0.8-3.6,2.3-4.8
			c1.8-1.3,4-2,6.3-1.9C251.6,22.1,254.5,22.5,257.2,23.4z"/>
		<path class="st0" d="M200.4,21.1L200.4,21.1c-7.3-2.2-7.1-3.9-7-5.3c0.1-0.9,0.5-1.7,1.2-2.2c1.8-1.2,3.9-1.7,6-1.4
			c2.4,0.3,4.6,1.2,6.4,2.7l0,0l2.6-2.9l0,0l0,0c-2.5-2-5.5-3.3-8.7-3.7c-3.2-0.5-6.4,0.3-9,2.2c-1.5,1.2-2.5,3-2.7,4.9
			c-0.4,5,3.3,7.1,9.8,9.1h0.1c6.9,2.1,7.3,3.7,7.2,5.6c-0.1,1-0.6,1.8-1.3,2.4c-1.5,1.1-3.3,1.6-5.1,1.5c-0.4,0-0.9,0-1.3-0.1
			c-2.7-0.3-5.2-1.3-7.2-3.1l0,0l-2.8,2.8l0,0l0,0c2.7,2.4,6,3.8,9.6,4.2c0.6,0.1,1.1,0.1,1.7,0.1c2.8,0.1,5.5-0.8,7.7-2.4
			c1.6-1.2,2.6-3.1,2.8-5.1C210.8,25.4,207,23.2,200.4,21.1z"/>
		<circle class="st0" cx="290.9" cy="2.9" r="2.6"/>
		<path class="st0" d="M357.6,12.2c-2.2-2.5-5.4-3.9-8.8-3.7c-4.1,0-8.1,1.8-9.9,4.6V9h-4v28.4h4V21.3c0-4.9,4-8.9,8.9-8.9
			c4.9,0,8.9,4,8.9,8.9v16.1h4v-16C360.8,18.1,359.7,14.8,357.6,12.2z"/>
		<path class="st0" d="M169.3,8.2c-3.9,0-7.7,1.5-10.5,4.3c-2.8,2.9-4.3,6.7-4.3,10.7c0,8.2,6.6,14.9,14.8,14.9c0.1,0,0.2,0,0.3,0
			c4.2,0,8.2-1.7,11.1-4.7l0,0l-2.9-2.6l0,0l0,0c-4.1,4.2-10.7,4.6-15.3,1c-2-1.6-3.3-3.8-3.8-6.3l0,0H182c1.1,0,2-0.9,2-2v-1
			C183.8,14.5,177.3,8.2,169.3,8.2z M179.9,21.7h-21.2l0,0c0.5-5.4,5.1-9.6,10.6-9.5c2.6,0,5.2,1,7.1,2.7
			C178.3,16.6,179.6,19.1,179.9,21.7L179.9,21.7z"/>
	</g>
</g>
</svg>
